<svg width="240" height="60" viewBox="0 0 240 60" fill="none" xmlns="http://www.w3.org/2000/svg">
  <path d="M16 38C16 41.3137 18.6863 44 22 44H24C24 47.3137 26.6863 50 30 50C33.3137 50 36 47.3137 36 44H54C54 47.3137 56.6863 50 60 50C63.3137 50 66 47.3137 66 44H68C71.3137 44 74 41.3137 74 38V22C74 15.3726 68.6274 10 62 10H28C21.3726 10 16 15.3726 16 22V38ZM30 46C27.7909 46 26 44.2091 26 42C26 39.7909 27.7909 38 30 38C32.2091 38 34 39.7909 34 42C34 44.2091 32.2091 46 30 46ZM60 46C57.7909 46 56 44.2091 56 42C56 39.7909 57.7909 38 60 38C62.2091 38 64 39.7909 64 42C64 44.2091 62.2091 46 60 46ZM22 16H68C69.1046 16 70 16.8954 70 18V26H20V18C20 16.8954 20.8954 16 22 16Z" fill="#2563eb"/>
  <text x="82" y="38" font-family="system-ui, -apple-system, sans-serif" font-weight="900" font-size="28" fill="#2563eb" letter-spacing="-0.5">SINAR MUDA</text>
</svg>
